#!OML:ASF I:\Actors\actors\Patient Classification 2\Patient 1\Session 1\actor1.ASF
:FULLY-SPECIFIED
:DEGREES
179
root -0.793699 18.2092 7.21551 -10.3801 -5.71235 -5.5155
lowerback -0.991684 -0.517005 1.73783
upperback -4.42323 -0.607632 1.91549
thorax -3.99525 -0.328044 1.01631
lowerneck -20.3641 -2.48018 -3.22044
upperneck 24.1131 -3.4424 3.42681
head 11.3346 -1.42758 1.25646
rclavicle 1.02374e-014 -9.64106e-015
rhumerus -0.489429 -11.0304 -10.5007
rradius 67.3495
rwrist -28.7916
rhand -0.646141 -22.589
rfingers 7.12502
rthumb 24.9713 -50.9772
lclavicle 1.02374e-014 -9.64106e-015
lhumerus 7.43008 18.6885 19.9012
lradius 57.9454
lwrist 46.9703
lhand -10.4426 -24.391
lfingers 7.12502
lthumb 15.5574 5.00326
rfemur 24.663 -0.0955725 18.6039
rtibia 5.40694e-014
rfoot -16.3545 -2.93566
rtoes -11.112
lfemur 12.0112 -7.87102 -11.7085
ltibia 25.8014
lfoot -30.2832 12.5434
ltoes -56.2518
180
root -0.790584 18.2091 7.21581 -10.4529 -5.79967 -5.54622
lowerback -1.32552 -0.508353 1.8282
upperback -4.3554 -0.605606 1.9733
thorax -3.73635 -0.328153 1.02047
lowerneck -20.1799 -2.23803 -2.93752
upperneck 24.2653 -3.21874 3.48204
head 11.3434 -1.29364 1.26695
rclavicle 7.55382e-015 -6.85807e-015
rhumerus -1.06433 -7.70366 -11.3539
rradius 68.3225
rwrist -26.241
rhand -0.88614 -23.329
rfingers 7.12502
rthumb 24.7413 -51.749
lclavicle 7.55382e-015 -6.85807e-015
lhumerus 5.34439 14.7997 20.1343
lradius 59.7309
lwrist 45.7594
lhand -9.84742 -25.1261
lfingers 7.12502
lthumb 16.1306 4.22259
rfemur 24.7367 -0.0140109 18.6515
rtibia -2.06736e-014
rfoot -16.3281 -2.96358
rtoes -11.1782
lfemur 12.1303 -7.76811 -11.6627
ltibia 25.7602
lfoot -30.2434 12.5124
ltoes -56.2861
181
root -0.786999 18.2074 7.21543 -10.5866 -5.8931 -5.58898
lowerback -1.58704 -0.505687 1.98355
upperback -4.3202 -0.610273 1.98047
thorax -3.55392 -0.334862 0.937522
lowerneck -19.7959 -1.99406 -2.65167
upperneck 24.3938 -3.03295 3.66599
head 11.3088 -1.16222 1.31877
rclavicle 1.05853e-014 -4.47266e-015
rhumerus -1.97754 -4.20142 -12.3786
rradius 69.3389
rwrist -24.2944
rhand -0.933475 -22.6244
rfingers 7.12502
rthumb 24.696 -51.0506
lclavicle 1.05853e-014 -4.47266e-015
lhumerus 3.11653 10.5463 20.4344
lradius 61.7516
lwrist 44.3079
lhand -9.5812 -25.7897
lfingers 7.12502
lthumb 16.3869 3.5381
rfemur 24.8687 0.0720508 18.7138
rtibia 6.83819e-014
rfoot -16.3282 -3.01373
rtoes -11.34
lfemur 12.2953 -7.48536 -11.5233
ltibia 25.7057
lfoot -30.0489 12.4048
ltoes -56.4403
182
root -0.783392 18.2056 7.21446 -10.7747 -6.00048 -5.60157
lowerback -1.75684 -0.509662 2.10838
upperback -4.29381 -0.621261 1.99365
thorax -3.43219 -0.343619 0.879144
lowerneck -19.3806 -1.76251 -2.33573
upperneck 24.5697 -2.84817 3.75801
head 11.2841 -1.04023 1.33129
rclavicle -9.06955e-015 1.10822e-014
rhumerus -3.04931 -0.667574 -13.5286
rradius 70.4031
rwrist -23.2909
rhand -0.862628 -21.5309
rfingers 7.12502
rthumb 24.7639 -49.9478
lclavicle -9.06955e-015 1.10822e-014
lhumerus 0.682526 6.05764 20.8568
lradius 63.9525
lwrist 43.0872
lhand -9.10422 -26.3073
lfingers 7.12502
lthumb 16.8461 2.98202
rfemur 25.0505 0.179362 18.7461
rtibia -5.88403e-014
rfoot -16.3309 -3.08357
rtoes -11.4882
lfemur 12.5331 -7.13364 -11.3927
ltibia 25.6114
lfoot -29.7982 12.2622
ltoes -56.6111
183
root -0.770854 18.2079 7.21324 -10.9686 -6.26836 -5.39322
lowerback -1.86268 -0.453575 2.17138
upperback -4.19384 -0.55417 1.94985
thorax -3.26973 -0.311872 0.795675
lowerneck -19.3043 -1.55643 -1.94279
upperneck 24.8017 -2.67834 3.70877
head 11.3444 -0.930906 1.27547
rclavicle -3.77691e-015 1.49089e-016
rhumerus -4.18799 2.84581 -14.8415
rradius 71.5005
rwrist -22.0331
rhand -0.921473 -20.9714
rfingers 7.12502
rthumb 24.7075 -49.3961
lclavicle -3.77691e-015 1.49089e-016
lhumerus -1.82338 1.63264 21.5563
lradius 66.1269
lwrist 42.0944
lhand -8.05813 -26.9312
lfingers 7.12502
lthumb 17.8529 2.26936
rfemur 25.1732 0.502183 18.5396
rtibia -5.56597e-014
rfoot -16.2739 -3.19236
rtoes -11.7028
lfemur 12.8236 -6.88293 -11.6615
ltibia 25.5131
lfoot -29.7261 12.316
ltoes -56.5465
184
root -0.743179 18.2185 7.20887 -11.0628 -6.92981 -5.13527
lowerback -1.91995 -0.240816 2.53073
upperback -4.1064 -0.277756 1.84517
thorax -3.14922 -0.186049 0.483044
lowerneck -19.3358 -1.3571 -1.56446
upperneck 25.0492 -2.53941 3.75305
head 11.4359 -0.822832 1.25167
rclavicle -1.40267e-014 -1.03865e-014
rhumerus -5.53571 6.25358 -16.3654
rradius 72.5612
rwrist -20.1204
rhand -0.300424 -20.4208
rfingers 7.12502
rthumb 25.3026 -48.7626
lclavicle -1.40267e-014 -1.03865e-014
lhumerus -4.39165 -2.92283 22.5958
lradius 68.2464
lwrist 40.4926
lhand -7.435 -27.8561
lfingers 7.12502
lthumb 18.4524 1.28873
rfemur 25.0546 1.23054 18.3138
rtibia 9.54166e-015
rfoot -16.0971 -3.36338
rtoes -12.1464
lfemur 13.0993 -6.67348 -12.1762
ltibia 25.3902
lfoot -29.8751 12.7899
ltoes -56.3169
185
root -0.741523 18.216 7.21159 -11.2451 -7.05147 -5.15152
lowerback -2.19292 -0.218195 2.63934
upperback -3.94587 -0.263395 1.85284
thorax -2.8298 -0.178573 0.427233
lowerneck -19.2668 -1.17706 -1.31949
upperneck 25.3308 -2.43889 3.97485
head 11.5275 -0.722275 1.31092
rclavicle 7.67806e-015 -1.29459e-014
rhumerus -7.21351 9.79206 -18.1129
rradius 73.6302
rwrist -17.9229
rhand -0.0298658 -19.9108
rfingers 7.12502
rthumb 25.5618 -48.2156
lclavicle 7.67806e-015 -1.29459e-014
lhumerus -7.05456 -7.61467 24.0159
lradius 70.28
lwrist 37.7984
lhand -7.23344 -28.7362
lfingers 7.12502
lthumb 18.6463 0.390109
rfemur 25.2535 1.34938 18.367
rtibia 3.33958e-014
rfoot -16.0961 -3.40374
rtoes -12.3354
lfemur 13.3799 -6.38405 -12.0579
ltibia 25.2572
lfoot -29.7128 12.7027
ltoes -56.421
186
root -0.738497 18.2101 7.21671 -11.4845 -7.20158 -5.0255
lowerback -2.43769 -0.193143 2.60948
upperback -3.77787 -0.245596 1.81951
thorax -2.51798 -0.165898 0.407081
lowerneck -19.0637 -1.00778 -1.05439
upperneck 25.5345 -2.36468 4.22
head 11.5644 -0.630601 1.3709
rclavicle -5.53491e-015 2.84511e-014
rhumerus -9.153 13.5632 -20.1712
rradius 74.6741
rwrist -15.9058
rhand -0.318609 -19.5844
rfingers 7.12502
rthumb 25.2852 -47.9286
lclavicle -5.53491e-015 2.84511e-014
lhumerus -9.95745 -12.3621 25.7491
lradius 72.3834
lwrist 34.9494
lhand -6.96198 -29.2367
lfingers 7.12502
lthumb 18.9074 -0.135601
rfemur 25.5074 1.53459 18.2619
rtibia 4.77083e-014
rfoot -16.1312 -3.42336
rtoes -12.2714
lfemur 13.7343 -6.16924 -12.1696
ltibia 25.1572
lfoot -29.7069 12.7071
ltoes -56.5389
